<?xml version="1.0" encoding="utf-8"?>
<!-- Generator: Adobe Illustrator 25.0.0, SVG Export Plug-In . SVG Version: 6.00 Build 0)  -->
<svg version="1.1" id="Layer_1" xmlns="http://www.w3.org/2000/svg" xmlns:xlink="http://www.w3.org/1999/xlink" x="0px" y="0px"
	 viewBox="0 0 256 400" style="enable-background:new 0 0 256 400;" xml:space="preserve">
<style type="text/css">
	.st0{fill:#FFFFFF;}
</style>
<g>
	<path class="st0" d="M33.12,81.66c-9.71,0-16.49-7.72-16.49-18.77c0-10.65,7.45-19.17,16.89-19.17c9.31,0,16.36,8.25,16.36,19.17
		C49.88,73.94,42.96,81.66,33.12,81.66 M36.84,29.48c-8.38,0-14.1,2.79-19.95,9.58V0H0v93.23h16.89v-7.98
		c5.45,7.19,11.44,10.11,20.75,10.11c17.96,0,30.19-13.31,30.19-32.61C67.83,43.32,54.93,29.48,36.84,29.48"/>
	<path class="st0" d="M90.34,56.76c1.6-8.38,7.05-13.04,15.16-13.04c8.38,0,14.23,4.92,15.69,13.04H90.34z M138.62,63.15
		c0-19.83-13.7-33.67-33.38-33.67c-19.02,0-32.45,13.58-32.45,32.87c0,19.17,13.97,33.01,33.52,33.01
		c13.04,0,23.81-6.79,29.93-18.77l-15.56-4.26c-2.66,4.93-7.98,7.99-14.23,7.99c-8.38,0-14.63-5.32-16.09-13.84h48.15L138.62,63.15z
		"/>
	<path class="st0" d="M197.61,49.91c-11.04,0-18.75-6.92-18.75-16.77c0-9.72,7.71-16.5,18.75-16.5c10.64,0,19.15,7.45,19.15,16.9
		C216.76,42.86,208.52,49.91,197.61,49.91 M256,0h-88.71v16.9h7.98c-7.18,5.46-10.11,11.45-10.11,20.76
		c0,17.97,13.3,30.21,32.59,30.21c19.42,0,33.25-12.91,33.25-31.01c0-8.39-2.79-14.11-9.58-19.96H256V0z"/>
	<path class="st0" d="M228.87,93.19h-10.97c4.52,1.73,6.38,2.93,8.25,5.46c1.86,2.66,2.93,6.25,2.93,9.98c0,0.4,0,1.06-0.13,2
		h-17.29c0.13-1.33,0.26-2.66,0.26-3.59c0-4.66-0.2-8.92-3.66-11.31c-2.79-2-5.45-2.53-11.3-2.53h-29.66v-16.9h61.58V93.19z"/>
	<path class="st0" d="M246.29,138.08c-5.19,0-9.18-3.99-9.18-9.32c0-5.46,3.99-9.45,9.31-9.45c5.45,0,9.44,3.99,9.44,9.45
		C255.87,134.22,251.88,138.08,246.29,138.08"/>
	<rect x="167.29" y="120.25" class="st0" width="61.58" height="16.9"/>
	<rect x="167.29" y="147.91" class="st0" width="88.71" height="16.9"/>
	<rect x="167.29" y="175.45" class="st0" width="88.71" height="16.9"/>
	<path class="st0" d="M246.29,220.95c-5.19,0-9.18-3.99-9.18-9.32c0-5.46,3.99-9.45,9.31-9.45c5.45,0,9.44,3.99,9.44,9.45
		C255.87,217.08,251.88,220.95,246.29,220.95"/>
	<rect x="167.29" y="203.11" class="st0" width="61.58" height="16.9"/>
	<path class="st0" d="M198.14,279.65c-10.64,0-19.42-7.59-19.42-17.04c0-9.18,8.12-16.24,18.89-16.24
		c11.31,0,19.15,6.79,19.15,16.37C216.76,272.73,209.05,279.65,198.14,279.65 M230.99,259.29c0-17.97-14.23-31.01-33.65-31.01
		c-18.75,0-32.19,12.38-32.19,29.68c0,9.05,3.32,15.71,10.64,21.43h-8.51v16.9h61.58v-16.9h-7.85
		C228.07,273.4,230.99,267.67,230.99,259.29"/>
	<path class="st0" d="M228.87,323.96h-7.58c7.05,4.52,9.71,9.05,9.71,16.77c0,5.86-2.13,11.45-5.72,15.17
		c-3.99,3.99-8.91,5.46-19.02,5.46h-38.97v-16.9h38.17c3.46,0,5.45-0.4,7.18-1.46c2.53-1.6,4.13-4.79,4.13-8.12
		c0-6.52-4.92-10.92-12.1-10.92h-37.37v-16.9h61.58V323.96z"/>
	<path class="st0" d="M185.37,392.28c-2.93,0-3.72,1.06-3.99,4.79V400h-14.1v-13.44c0.27-8.25,3.59-11.31,11.7-11.18h35.91v-7.05
		h14.23v7.05h16.49v16.9h-16.49V400H214.9v-7.72H185.37z"/>
</g>
</svg>
