<?xml version="1.0" encoding="utf-8"?>
<!-- Generator: Adobe Illustrator 25.0.0, SVG Export Plug-In . SVG Version: 6.00 Build 0)  -->
<svg version="1.1" id="Layer_1" xmlns="http://www.w3.org/2000/svg" xmlns:xlink="http://www.w3.org/1999/xlink" x="0px" y="0px"
	 viewBox="0 0 800 106" style="enable-background:new 0 0 800 106;" xml:space="preserve">
<style type="text/css">
	.st0{fill:#46BAF2;}
</style>
<g>
	<path class="st0" d="M532.16,92.65l-2.21,12.45c-0.07,0.41-0.47,0.74-0.89,0.74h-77.95c-0.56,0-0.99-0.5-0.89-1.05L468.64,0.91
		c0.07-0.4,0.47-0.74,0.89-0.74h20.62c0.56,0,0.98,0.5,0.89,1.05L475.01,91.6h56.26C531.83,91.6,532.25,92.1,532.16,92.65"/>
	<path class="st0" d="M699.75,0.17H598.78c-0.44,0-0.81,0.31-0.89,0.74l-2.21,12.45c-0.1,0.55,0.33,1.05,0.89,1.05h39.1
		l-16.02,90.37c-0.1,0.55,0.33,1.05,0.89,1.05h20.61c0.42,0,0.81-0.33,0.89-0.74l16.08-90.69h39.42c0.44,0,0.81-0.31,0.89-0.74
		l2.21-12.45C700.73,0.67,700.31,0.17,699.75,0.17"/>
	<path class="st0" d="M695.75,105.02L714.19,0.98c0.08-0.45,0.52-0.81,0.97-0.81h83.94c0.56,0,0.98,0.5,0.89,1.05l-2.21,12.45
		c-0.07,0.41-0.47,0.74-0.89,0.74h-62.64l-5.57,31.43h52.76c0.59,0,0.99,0.47,0.89,1.05l-2.22,12.53c-0.07,0.41-0.47,0.74-0.89,0.74
		h-53.08l-5.58,31.43h62.32c0.56,0,0.99,0.5,0.89,1.05l-2.21,12.45c-0.07,0.41-0.47,0.74-0.89,0.74h-84.25
		C695.98,105.84,695.67,105.47,695.75,105.02"/>
	<path class="st0" d="M285.72,104.85L255.03,0.65C254.92,0.26,254.57,0,254.17,0h-46.45c-0.3,0-0.59,0.15-0.76,0.41l-67.63,104.21
		c-0.39,0.6,0.04,1.38,0.76,1.38h20.3c0.3,0,0.59-0.15,0.76-0.4l12.19-18.72h46.55c0.6,0,1.03-0.57,0.86-1.15l-3.66-12.45
		c-0.11-0.39-0.46-0.65-0.87-0.65h-33.68l32.01-49.34l24.17,82.06c0.11,0.38,0.46,0.64,0.86,0.64h45.27
		C285.46,106,285.89,105.43,285.72,104.85"/>
	<path class="st0" d="M121.85,0.91L108.5,76.19L68.4,0.64c-0.15-0.29-0.46-0.48-0.79-0.48H19.32c-0.44,0-0.81,0.31-0.89,0.74
		L0.02,104.78c-0.1,0.55,0.32,1.05,0.89,1.05h20.61c0.44,0,0.81-0.31,0.89-0.74l13.35-75.32l40.21,75.59
		c0.16,0.29,0.46,0.48,0.8,0.48h48.18c0.44,0,0.81-0.31,0.89-0.74L144.24,1.22c0.1-0.55-0.33-1.05-0.89-1.05h-20.62
		C122.3,0.17,121.93,0.48,121.85,0.91"/>
	<path class="st0" d="M421.12,0.91l-13.34,75.28L367.67,0.64c-0.15-0.29-0.46-0.48-0.79-0.48h-48.29c-0.44,0-0.81,0.31-0.89,0.74
		l-18.41,103.88c-0.1,0.55,0.32,1.05,0.89,1.05h20.61c0.44,0,0.81-0.31,0.89-0.74l13.35-75.32l40.21,75.59
		c0.16,0.29,0.46,0.48,0.8,0.48h48.18c0.44,0,0.81-0.31,0.89-0.74L443.51,1.22c0.1-0.55-0.33-1.05-0.89-1.05h-20.62
		C421.57,0.17,421.2,0.48,421.12,0.91"/>
	<path class="st0" d="M565.02,105.84h-20.61c-0.56,0-0.99-0.5-0.89-1.05L561.93,0.91c0.07-0.4,0.47-0.74,0.89-0.74h20.62
		c0.56,0,0.98,0.5,0.89,1.05L565.91,105.1C565.83,105.5,565.44,105.84,565.02,105.84"/>
</g>
</svg>
